<?xml version="1.0" encoding="UTF-8"?>
<svg id="_图层_2" data-name="图层 2" xmlns="http://www.w3.org/2000/svg" viewBox="0 0 216.49 244.1">
  <defs>
    <style>
      .cls-1 {
        fill: #fff;
        stroke-width: 0px;
      }
    </style>
  </defs>
  <g id="_图层_2-2" data-name="图层 2">
    <g>
      <path class="cls-1" d="M99.31,2.47L8.64,54.39C3.55,57.3.4,62.71.38,68.58L0,173.06c-.02,6.69,3.52,12.88,9.3,16.24l90.29,52.57c5.07,2.95,11.34,2.98,16.43.06l90.67-51.91c5.8-3.32,9.39-9.49,9.42-16.18l.38-104.48c.02-5.87-3.09-11.3-8.16-14.26L118.03,2.54c-5.78-3.36-12.91-3.39-18.72-.07ZM200.33,63.62l-87.4,50.04c-2.89,1.65-6.44,1.64-9.32-.03L16.58,62.96c-.79-.46-.78-1.6,0-2.05L103.98,10.86c2.89-1.65,6.44-1.64,9.32.03l87.03,50.67c.79.46.78,1.6,0,2.05ZM11.75,71.25l87.09,50.7c2.86,1.66,4.62,4.72,4.63,8.02l.37,101.19c0,.92-.99,1.49-1.78,1.03L14.23,181.07c-2.88-1.68-4.64-4.76-4.63-8.09l.36-100.71c0-.91.99-1.48,1.78-1.02ZM113.43,230.31l-.36-100.23c-.01-3.35,1.78-6.46,4.69-8.12l87.34-50c.79-.45,1.78.12,1.78,1.03l-.36,100.71c-.01,3.33-1.8,6.4-4.69,8.06l-86.61,49.59c-.79.45-1.77-.12-1.78-1.03Z"/>
      <path class="cls-1" d="M68.4,193.17l8.63,4.98c.93.54,2.03-.38,1.66-1.39l-11.58-31.64c.39.04.76.06,1.13.07,3.09.03,5.42-1.12,7.01-3.44,1.58-2.32,2.37-5.66,2.37-10.04s-.79-8.66-2.36-12.88c-1.57-4.21-3.89-8.13-6.95-11.75-3.06-3.61-6.83-6.71-11.3-9.3l-20.14-11.63c-.77-.44-1.73.11-1.73,1v66.15c0,.41.22.79.58,1l8.18,4.72c.77.44,1.73-.11,1.73-1v-21.27c0-.89.96-1.44,1.73-1l8.82,5.09c.24.14.42.35.51.61l11.21,31.1c.09.26.27.47.51.61ZM45.62,123.55c0-.89.96-1.44,1.73-1l8.05,4.65c2.67,1.54,4.85,3.26,6.54,5.16s2.94,3.95,3.75,6.16c.81,2.21,1.22,4.54,1.22,7.01s-.41,4.21-1.22,5.44c-.81,1.22-2.05,1.79-3.73,1.7-1.67-.09-3.83-.9-6.48-2.42l-9.28-5.36c-.36-.21-.58-.59-.58-1v-20.34Z"/>
      <path class="cls-1" d="M115.41,39.06c-6.69-1.28-13.3-1.4-19.83-.37-6.53,1.03-12.71,3.23-18.51,6.58l-9.7,5.6-5.81,3.35-2.86,1.65c-.81.47-.81,1.63,0,2.1l57.17,33.01c.37.22.84.22,1.21,0l4.38-2.53,5.5-3.17,9.3-5.37c5.94-3.43,9.83-7.05,11.67-10.87,1.84-3.82,1.64-7.66-.58-11.53-2.23-3.87-6.45-7.6-12.66-11.18s-12.58-5.97-19.27-7.25ZM133.74,60.09c1.66,2.56,1.9,5.08.7,7.54-1.2,2.46-3.84,4.87-7.93,7.23l-8.19,4.73c-.37.22-.84.22-1.21,0l-38.69-22.34c-.81-.47-.81-1.63,0-2.1l7.25-4.19c4-2.31,8.11-3.8,12.31-4.47,4.2-.67,8.52-.53,12.94.42,4.43.95,8.91,2.74,13.44,5.36,4.59,2.65,7.71,5.25,9.38,7.82Z"/>
      <path class="cls-1" d="M176.8,107.13c-.28.16-.48.42-.56.73l-10.86,41.37c-.37,1.57-.79,3.54-1.28,5.91s-.98,4.91-1.49,7.63-.99,5.33-1.45,7.86c-.03.17-.06.33-.09.5-.04-.16-.07-.31-.11-.48-.46-2.03-.94-4.1-1.45-6.2-.51-2.11-1.01-4.06-1.49-5.86s-.92-3.25-1.32-4.34l-10.61-27.79c-.26-.69-1.08-.98-1.72-.61l-13.96,8.06c-.37.21-.6.61-.6,1.04v66.04c0,.92,1,1.5,1.8,1.04l7.89-4.56c.37-.21.6-.61.6-1.04v-34.03c0-1.54-.02-3.37-.06-5.48-.04-2.12-.08-4.38-.12-6.79-.04-2.41-.09-4.81-.14-7.19-.02-.98-.04-1.93-.06-2.85.3,1.07.6,2.15.9,3.24.62,2.22,1.23,4.33,1.85,6.35.61,2.02,1.19,3.85,1.73,5.49.54,1.65,1,3,1.39,4.07l10.45,27.1c.26.69,1.08.97,1.72.61l7.27-4.19c.28-.16.48-.42.56-.73l10.67-40.48c.39-1.52.86-3.44,1.39-5.75.54-2.31,1.11-4.83,1.71-7.57.6-2.73,1.21-5.55,1.83-8.44.33-1.54.64-3.06.94-4.55-.01,1.16-.03,2.36-.06,3.58-.05,2.48-.1,4.93-.16,7.36-.05,2.43-.09,4.7-.12,6.81-.03,2.11-.04,3.9-.04,5.38v32.65c0,.92,1,1.5,1.8,1.04l8.05-4.65c.37-.21.6-.61.6-1.04v-66.04c0-.92-1-1.5-1.8-1.04l-13.59,7.85Z"/>
    </g>
  </g>
</svg>